<svg xmlns="http://www.w3.org/2000/svg" viewBox="0 0 800 400"><defs><marker id="arrow" markerWidth="9" markerHeight="9" refX="7" refY="3" orient="auto"><path d="M0 0 8 3 0 6z" fill="#18324b"/></marker></defs><rect width="800" height="400" fill="#f4f7f7"/><text x="400" y="30" text-anchor="middle" font-family="Arial" font-size="22" font-weight="700" fill="#18324b">X/Y Continuum: Mobility and Access</text><g stroke="#cbd9dc" stroke-width="1" stroke-dasharray="4 5"><path d="M100 130h640M100 200h640M100 270h640M220 65v265M340 65v265M460 65v265M580 65v265M700 65v265"/></g><path d="M100 330V65M100 330h640" stroke="#18324b" stroke-width="3" marker-end="url(#arrow)"/><path d="M100 330h640" stroke="#18324b" stroke-width="3" marker-end="url(#arrow)"/><text x="420" y="380" text-anchor="middle" font-family="Arial" font-size="15" fill="#18324b">access to property increases</text><text x="25" y="210" transform="rotate(-90 25 210)" text-anchor="middle" font-family="Arial" font-size="15" fill="#18324b">mobility / speed increases</text><path d="M190 90Q400 190 650 300" fill="none" stroke="#9b5960" stroke-width="2" stroke-dasharray="8 6"/><g font-family="Arial" font-size="17" font-weight="700" fill="#18324b"><circle cx="220" cy="100" r="16" fill="#c4575c"/><text x="250" y="106">Arterial</text><circle cx="410" cy="195" r="16" fill="#d28a4b"/><text x="440" y="201">Collector</text><circle cx="610" cy="295" r="16" fill="#397c8c"/><text x="640" y="301">Local</text></g><g font-family="Arial" font-size="12" fill="#607d8b"><text x="112" y="320">low access</text><text x="650" y="320">high access</text><text x="112" y="82">high mobility</text></g></svg>